<svg xmlns="http://www.w3.org/2000/svg" viewBox="0 0 72.999 114">
  <defs>
    <style>
      .cls-1 {
        fill: gray;
      }

      .cls-2 {
        fill: #fff;
        stroke: #707070;
      }

      .cls-3 {
        fill: #24f332;
      }

      .cls-4 {
        fill: #91f4ff;
      }

      .cls-5 {
        fill: #f58181;
      }

      .cls-6 {
        fill: #ffb300;
      }

      .cls-7 {
        fill: #8181f5;
      }

      .cls-8 {
        fill: #e6e6e6;
      }

      .cls-9 {
        fill: #dcdcdc;
      }

      .cls-10 {
        stroke: none;
      }

      .cls-11 {
        fill: none;
      }
    </style>
  </defs>
  <g id="Phone" transform="translate(-1120 -434)">
    <g id="Group_2" data-name="Group 2" transform="translate(-85 31)">
      <rect id="Rectangle_7" data-name="Rectangle 7" class="cls-1" width="72.999" height="114" rx="5" transform="translate(1205 403)"/>
      <g id="Rectangle_8" data-name="Rectangle 8" class="cls-2" transform="translate(1208 407)">
        <rect class="cls-10" width="66.999" height="105"/>
        <rect class="cls-11" x="0.5" y="0.5" width="65.999" height="104"/>
      </g>
      <rect id="Rectangle_9" data-name="Rectangle 9" class="cls-1" width="30" height="9" rx="4" transform="translate(1226.5 404)"/>
      <g id="Rectangle_10" data-name="Rectangle 10" class="cls-2" transform="translate(1231.366 407)">
        <rect class="cls-10" width="21" height="3"/>
        <rect class="cls-11" x="0.5" y="0.5" width="20" height="2"/>
      </g>
    </g>
    <g id="Group_7" data-name="Group 7" transform="translate(-98 133)">
      <circle id="Ellipse_3" data-name="Ellipse 3" class="cls-3" cx="11.25" cy="11.25" r="11.25" transform="translate(1258 319)"/>
      <path id="Intersection_1" data-name="Intersection 1" class="cls-4" d="M0,11.739V.01Q.243,0,.489,0a11.25,11.25,0,0,1,11.25,11.25q0,.246-.01.489Z" transform="translate(1268.761 319)"/>
    </g>
    <g id="Group_8" data-name="Group 8" transform="translate(-232 17)">
      <rect id="Rectangle_23" data-name="Rectangle 23" class="cls-5" width="3.453" height="3.453" rx="1.726" transform="translate(1360 435)"/>
      <rect id="Rectangle_24" data-name="Rectangle 24" class="cls-6" width="3.453" height="3.453" rx="1.726" transform="translate(1360 439.385)"/>
      <rect id="Rectangle_25" data-name="Rectangle 25" class="cls-7" width="3.453" height="3.453" rx="1.726" transform="translate(1360 443.824)"/>
      <rect id="Rectangle_26" data-name="Rectangle 26" class="cls-8" width="22.361" height="1.754" transform="translate(1366.138 435.877)"/>
      <rect id="Rectangle_27" data-name="Rectangle 27" class="cls-8" width="16.661" height="1.754" transform="translate(1366.138 440.261)"/>
      <rect id="Rectangle_28" data-name="Rectangle 28" class="cls-8" width="5.261" height="1.754" transform="translate(1366.138 444.646)"/>
    </g>
    <g id="Group_9" data-name="Group 9" transform="translate(-65 157)">
      <rect id="Rectangle_16" data-name="Rectangle 16" class="cls-9" width="54.5" height="6.521" rx="3.261" transform="translate(1193 326)"/>
      <rect id="Rectangle_17" data-name="Rectangle 17" class="cls-9" width="40.06" height="1.863" rx="0.932" transform="translate(1193 340.906)"/>
      <rect id="Rectangle_18" data-name="Rectangle 18" class="cls-9" width="40.06" height="1.863" rx="0.932" transform="translate(1193 345.564)"/>
      <rect id="Rectangle_19" data-name="Rectangle 19" class="cls-9" width="27.483" height="2.329" rx="1.165" transform="translate(1193 350.222)"/>
      <rect id="Rectangle_20" data-name="Rectangle 20" class="cls-9" width="33.538" height="4.192" rx="2.096" transform="translate(1193 360.936)"/>
      <rect id="Rectangle_21" data-name="Rectangle 21" class="cls-9" width="52.171" height="2.329" rx="1.165" transform="translate(1193 368.389)"/>
      <rect id="Rectangle_22" data-name="Rectangle 22" class="cls-9" width="47.979" height="2.329" rx="1.165" transform="translate(1193 372.581)"/>
    </g>
  </g>
</svg>
