<svg xmlns="http://www.w3.org/2000/svg" viewBox="0 0 240 137">
  <defs>
    <style>
      .cls-1 {
        fill: gray;
      }

      .cls-2 {
        fill: #fff;
        stroke: #707070;
      }

      .cls-3 {
        fill: #24f332;
      }

      .cls-4 {
        fill: #91f4ff;
      }

      .cls-5 {
        fill: #dcdcdc;
      }

      .cls-6 {
        fill: #f58181;
      }

      .cls-7 {
        fill: #ffb300;
      }

      .cls-8 {
        fill: #8181f5;
      }

      .cls-9 {
        fill: #e6e6e6;
      }

      .cls-10 {
        stroke: none;
      }

      .cls-11 {
        fill: none;
      }
    </style>
  </defs>
  <g id="Tablet" transform="translate(-1446 -403)">
    <g id="Group_3" data-name="Group 3" transform="translate(494)">
      <rect id="Rectangle_11" data-name="Rectangle 11" class="cls-1" width="240" height="137" rx="10" transform="translate(952 403)"/>
      <g id="Rectangle_12" data-name="Rectangle 12" class="cls-2" transform="translate(964 410)">
        <rect class="cls-10" width="211" height="124"/>
        <rect class="cls-11" x="0.5" y="0.5" width="210" height="123"/>
      </g>
      <g id="Ellipse_2" data-name="Ellipse 2" class="cls-2" transform="translate(1178 466)">
        <circle class="cls-10" cx="5.5" cy="5.5" r="5.5"/>
        <circle class="cls-11" cx="5.5" cy="5.5" r="5"/>
      </g>
      <g id="Rectangle_13" data-name="Rectangle 13" class="cls-2" transform="translate(957 452)">
        <rect class="cls-10" width="5" height="40"/>
        <rect class="cls-11" x="0.5" y="0.5" width="4" height="39"/>
      </g>
    </g>
    <g id="Group_10" data-name="Group 10" transform="translate(1582.762 426.153)">
      <circle id="Ellipse_3" data-name="Ellipse 3" class="cls-3" cx="32.305" cy="32.305" r="32.305"/>
      <path id="Intersection_1" data-name="Intersection 1" class="cls-4" d="M0,33.71V.03Q.7,0,1.4,0A32.305,32.305,0,0,1,33.71,32.305q0,.706-.03,1.4Z" transform="translate(30.901)"/>
    </g>
    <g id="Group_11" data-name="Group 11" transform="translate(1475 431)">
      <rect id="Rectangle_16" data-name="Rectangle 16" class="cls-5" width="82.257" height="9.843" rx="4.921"/>
      <rect id="Rectangle_17" data-name="Rectangle 17" class="cls-5" width="60.462" height="2.812" rx="1.406" transform="translate(0 22.498)"/>
      <rect id="Rectangle_18" data-name="Rectangle 18" class="cls-5" width="60.462" height="2.812" rx="1.406" transform="translate(0 29.528)"/>
      <rect id="Rectangle_19" data-name="Rectangle 19" class="cls-5" width="41.48" height="3.515" rx="1.758" transform="translate(0 36.559)"/>
      <rect id="Rectangle_20" data-name="Rectangle 20" class="cls-5" width="50.62" height="6.327" rx="3.164" transform="translate(0 52.729)"/>
      <rect id="Rectangle_21" data-name="Rectangle 21" class="cls-5" width="78.742" height="3.515" rx="1.758" transform="translate(0 63.978)"/>
      <rect id="Rectangle_22" data-name="Rectangle 22" class="cls-5" width="72.414" height="3.515" rx="1.758" transform="translate(0 70.305)"/>
    </g>
    <g id="Group_12" data-name="Group 12" transform="translate(1582.762 499.226)">
      <rect id="Rectangle_23" data-name="Rectangle 23" class="cls-6" width="6.645" height="6.645" rx="3.323"/>
      <rect id="Rectangle_24" data-name="Rectangle 24" class="cls-7" width="6.645" height="6.645" rx="3.323" transform="translate(0 8.438)"/>
      <rect id="Rectangle_25" data-name="Rectangle 25" class="cls-8" width="6.645" height="6.645" rx="3.323" transform="translate(0 16.982)"/>
      <rect id="Rectangle_26" data-name="Rectangle 26" class="cls-9" width="43.035" height="3.375" transform="translate(11.813 1.688)"/>
      <rect id="Rectangle_27" data-name="Rectangle 27" class="cls-9" width="32.065" height="3.375" transform="translate(11.813 10.126)"/>
      <rect id="Rectangle_28" data-name="Rectangle 28" class="cls-9" width="10.126" height="3.375" transform="translate(11.813 18.564)"/>
    </g>
  </g>
</svg>
